# xmcd
# 
# Track frame offsets:
#     150
#     12532
#     28937
#     43465
#     60085
#     76495
#     93500
#     106015
#     119542
#     132965
#     149517
#     166965
#     184845
#     197965
#     212700
#     226707
# 
# Disc length: 3203
# 
# Revision: 1
# Processed by: cddbd v1.5.2PL0 Copyright (c) Steve Scherf et al.
# Submitted via: fre:ac v1.0.27
# 
DISCID=e20c8110
DTITLE=陳淑樺 - 思念淑樺 Disc 2
DYEAR=2008
DGENRE=國語流行曲
TTITLE0=含羞草
TTITLE1=夢之約
TTITLE2=忘形的輕吟
TTITLE3=秋夜的低語
TTITLE4=依然匆匆
TTITLE5=夜語
TTITLE6=霧
TTITLE7=那個人
TTITLE8=定情
TTITLE9=跟著你
TTITLE10=陪我到海邊散步
TTITLE11=秋盼
TTITLE12=自你走後
TTITLE13=整個縈繞著你
TTITLE14=歸情
TTITLE15=悄悄的想你
EXTD=
EXTT0=
EXTT1=
EXTT2=
EXTT3=
EXTT4=
EXTT5=
EXTT6=
EXTT7=
EXTT8=
EXTT9=
EXTT10=
EXTT11=
EXTT12=
EXTT13=
EXTT14=
EXTT15=
PLAYORDER=
